<svg xmlns="http://www.w3.org/2000/svg" viewBox="0 0 800 1000" role="img" aria-label="Portrait placeholder for Sanchita Sharma">
  <defs>
    <linearGradient id="bg" x1="0" y1="0" x2="1" y2="1">
      <stop offset="0%" stop-color="#0b1830"/>
      <stop offset="55%" stop-color="#102a4b"/>
      <stop offset="100%" stop-color="#07111f"/>
    </linearGradient>
    <radialGradient id="glow" cx="30%" cy="22%" r="70%">
      <stop offset="0%" stop-color="#7ce0c3" stop-opacity="0.35"/>
      <stop offset="100%" stop-color="#7ce0c3" stop-opacity="0"/>
    </radialGradient>
    <linearGradient id="skin" x1="0" y1="0" x2="0" y2="1">
      <stop offset="0%" stop-color="#ffd9c6"/>
      <stop offset="100%" stop-color="#e8b69a"/>
    </linearGradient>
    <linearGradient id="hair" x1="0" y1="0" x2="1" y2="1">
      <stop offset="0%" stop-color="#23161f"/>
      <stop offset="100%" stop-color="#0b0710"/>
    </linearGradient>
  </defs>
  <rect width="800" height="1000" rx="48" fill="url(#bg)"/>
  <rect width="800" height="1000" rx="48" fill="url(#glow)"/>
  <circle cx="430" cy="190" r="170" fill="#6ca8ff" fill-opacity="0.18"/>
  <circle cx="240" cy="220" r="130" fill="#7ce0c3" fill-opacity="0.12"/>
  <path d="M120 820C180 660 300 585 410 585c110 0 230 75 290 235" fill="#0c1a2f"/>
  <path d="M250 335c0-112 92-203 205-203s205 91 205 203v72c0 76-35 147-94 192l-53 40H398l-53-40c-59-45-95-116-95-192v-72Z" fill="url(#hair)"/>
  <path d="M265 380c0-92 78-166 175-166s175 74 175 166v116c0 78-62 141-139 141H404c-77 0-139-63-139-141V380Z" fill="url(#skin)"/>
  <path d="M290 360c18-79 86-138 170-138 86 0 157 64 171 148-28-25-63-39-101-39-36 0-69 12-95 34-26-22-59-34-95-34-19 0-37 3-52 9Z" fill="#160f19"/>
  <path d="M301 494c38 32 84 50 129 50 44 0 89-18 127-49 4 62-47 113-116 113h-27c-69 0-120-52-113-114Z" fill="#d79b83" fill-opacity="0.4"/>
  <ellipse cx="345" cy="405" rx="17" ry="22" fill="#1c1522"/>
  <ellipse cx="515" cy="405" rx="17" ry="22" fill="#1c1522"/>
  <path d="M322 454c28 25 64 38 103 38 40 0 76-13 104-38" fill="none" stroke="#9b5f55" stroke-width="10" stroke-linecap="round"/>
  <path d="M341 606c23-20 56-31 89-31 34 0 67 11 90 31" fill="none" stroke="#ffffff" stroke-opacity="0.12" stroke-width="12" stroke-linecap="round"/>
  <path d="M200 885c44-109 119-167 222-167 103 0 178 58 222 167" fill="none" stroke="#7ce0c3" stroke-opacity="0.3" stroke-width="8" stroke-linecap="round"/>
  <rect x="68" y="68" width="664" height="864" rx="38" fill="none" stroke="#ffffff" stroke-opacity="0.08"/>
  <text x="400" y="892" text-anchor="middle" font-family="Manrope, Arial, sans-serif" font-size="28" fill="#cfe3ff" fill-opacity="0.7">Sanchita Sharma</text>
</svg>
